<svg width="50" height="50" viewBox="0 0 50 50" fill="none" xmlns="http://www.w3.org/2000/svg">
    <path d="M34.5 42.7929L31.7929 45.5H13.2071L10.5 42.7929V7.18103L12.7342 4.5H31.7929L34.5 7.20711V13.5H31.5V8V7.5H31H30H15H14H13.5V8V42V42.5H14H15H29.5H31H31.5V42V35.5H34.5V42.7929Z" fill="#424242" stroke="#424242"/>
    <circle cx="22.5" cy="37.5" r="1.5" fill="#424242"/>
    <path d="M26.9091 27.9032L27 17H41V27.9032L38.2273 30.5H29.5L26.9091 27.9032Z" stroke="#424242" stroke-width="2.5"/>
    <path d="M36.5 22H32H31V22.5V24.5L31.5 25H36L36.5 24.5V22.5V22Z" fill="#424242"/>
    <path d="M32 22H36.5M36.5 22H31V22.5V24.5L31.5 25H36L36.5 24.5V22.5V22Z" stroke="#424242"/>
</svg>
